REM DIRINDEX 1\2\5,1\2\6,1\2\7,1\2\8,1\3\9,1\3\10,1\3\11,1\4\12,1\4\13,1\4\14,1\4\15,1\4\16
REM DIRNAME folder01,folder02,folder03,folder04,folder05,folder06,folder07,folder08,folder09,folder10,folder11,folder12,folder13,folder14,folder15,folder16
TITLE ""
FILE "1200_2_sec02_0354_0369.mp3" MP3
  TRACK 01 AUDIO
    TITLE "0:"
    INDEX 01 00:00:00
  TRACK 02 AUDIO
    TITLE "10:cjc034_00726"
    INDEX 01 00:00:13
  TRACK 03 AUDIO
    TITLE "0:"
    INDEX 01 00:01:54
  TRACK 04 AUDIO
    TITLE "9:cjc034_00727"
    INDEX 01 00:01:60
  TRACK 05 AUDIO
    TITLE "0:"
    INDEX 01 00:02:61
  TRACK 06 AUDIO
    TITLE "10:cjc034_00728"
    INDEX 01 00:03:45
  TRACK 07 AUDIO
    TITLE "0:"
    INDEX 01 00:04:60
  TRACK 08 AUDIO
    TITLE "9:cjc034_00729"
    INDEX 01 00:04:62
  TRACK 09 AUDIO
    TITLE "0:"
    INDEX 01 00:06:02
  TRACK 10 AUDIO
    TITLE "10:cjc034_00730"
    INDEX 01 00:06:57
  TRACK 11 AUDIO
    TITLE "0:"
    INDEX 01 00:08:01
  TRACK 12 AUDIO
    TITLE "9:cjc034_00731"
    INDEX 01 00:08:05
  TRACK 13 AUDIO
    TITLE "0:"
    INDEX 01 00:09:14
  TRACK 14 AUDIO
    TITLE "10:cjc034_00732"
    INDEX 01 00:09:67
  TRACK 15 AUDIO
    TITLE "0:"
    INDEX 01 00:12:03
  TRACK 16 AUDIO
    TITLE "9:cjc034_00733"
    INDEX 01 00:12:12
  TRACK 17 AUDIO
    TITLE "0:"
    INDEX 01 00:13:14
  TRACK 18 AUDIO
    TITLE "10:cjc034_00734"
    INDEX 01 00:13:71
  TRACK 19 AUDIO
    TITLE "0:"
    INDEX 01 00:16:69
  TRACK 20 AUDIO
    TITLE "9:cjc034_00735"
    INDEX 01 00:16:71
  TRACK 21 AUDIO
    TITLE "0:"
    INDEX 01 00:18:03
  TRACK 22 AUDIO
    TITLE "10:cjc034_00736"
    INDEX 01 00:18:58
  TRACK 23 AUDIO
    TITLE "0:"
    INDEX 01 00:20:12
  TRACK 24 AUDIO
    TITLE "9:cjc034_00737"
    INDEX 01 00:20:14
  TRACK 25 AUDIO
    TITLE "0:"
    INDEX 01 00:21:27
  TRACK 26 AUDIO
    TITLE "10:cjc034_00738"
    INDEX 01 00:22:11
  TRACK 27 AUDIO
    TITLE "0:"
    INDEX 01 00:23:40
  TRACK 28 AUDIO
    TITLE "9:cjc034_00739"
    INDEX 01 00:23:46
  TRACK 29 AUDIO
    TITLE "0:"
    INDEX 01 00:24:53
  TRACK 30 AUDIO
    TITLE "10:cjc034_00740"
    INDEX 01 00:25:35
  TRACK 31 AUDIO
    TITLE "0:"
    INDEX 01 00:26:52
  TRACK 32 AUDIO
    TITLE "9:cjc034_00741"
    INDEX 01 00:26:58
  TRACK 33 AUDIO
    TITLE "0:"
    INDEX 01 00:27:71
  TRACK 34 AUDIO
    TITLE "10:cjc034_00742"
    INDEX 01 00:28:57
  TRACK 35 AUDIO
    TITLE "0:"
    INDEX 01 00:30:03
  TRACK 36 AUDIO
    TITLE "9:cjc034_00743"
    INDEX 01 00:30:06
  TRACK 37 AUDIO
    TITLE "0:"
    INDEX 01 00:31:12
  TRACK 38 AUDIO
    TITLE "10:cjc034_00744"
    INDEX 01 00:31:71
  TRACK 39 AUDIO
    TITLE "0:"
    INDEX 01 00:34:32
  TRACK 40 AUDIO
    TITLE "9:cjc034_00745"
    INDEX 01 00:34:42
  TRACK 41 AUDIO
    TITLE "0:"
    INDEX 01 00:35:64
  TRACK 42 AUDIO
    TITLE "10:cjc034_00746"
    INDEX 01 00:36:48
  TRACK 43 AUDIO
    TITLE "0:"
    INDEX 01 00:38:04
  TRACK 44 AUDIO
    TITLE "9:cjc034_00747"
    INDEX 01 00:38:08
  TRACK 45 AUDIO
    TITLE "0:"
    INDEX 01 00:39:25
  TRACK 46 AUDIO
    TITLE "11:cjc034_00748"
    INDEX 01 00:41:00
  TRACK 47 AUDIO
    TITLE "0:"
    INDEX 01 00:42:45
  TRACK 48 AUDIO
    TITLE "10:cjc034_00749"
    INDEX 01 00:43:48
  TRACK 49 AUDIO
    TITLE "0:"
    INDEX 01 00:44:67
  TRACK 50 AUDIO
    TITLE "9:cjc034_00750"
    INDEX 01 00:44:73
  TRACK 51 AUDIO
    TITLE "0:"
    INDEX 01 00:46:39
  TRACK 52 AUDIO
    TITLE "10:cjc034_00751"
    INDEX 01 00:47:17
  TRACK 53 AUDIO
    TITLE "0:"
    INDEX 01 00:48:44
  TRACK 54 AUDIO
    TITLE "9:cjc034_00752"
    INDEX 01 00:48:51
  TRACK 55 AUDIO
    TITLE "0:"
    INDEX 01 00:49:65
  TRACK 56 AUDIO
    TITLE "10:cjc034_00753"
    INDEX 01 00:50:48
  TRACK 57 AUDIO
    TITLE "0:"
    INDEX 01 00:53:41
  TRACK 58 AUDIO
    TITLE "9:cjc034_00754"
    INDEX 01 00:53:47
  TRACK 59 AUDIO
    TITLE "0:"
    INDEX 01 00:54:52
  TRACK 60 AUDIO
    TITLE "10:cjc034_00755"
    INDEX 01 00:55:38
  TRACK 61 AUDIO
    TITLE "0:"
    INDEX 01 00:57:48
  TRACK 62 AUDIO
    TITLE "9:cjc034_00756"
    INDEX 01 00:57:52
  TRACK 63 AUDIO
    TITLE "0:"
    INDEX 01 00:58:56
  TRACK 64 AUDIO
    TITLE "10:cjc034_00757"
    INDEX 01 00:59:41
  TRACK 65 AUDIO
    TITLE "0:"
    INDEX 01 01:00:41
  TRACK 66 AUDIO
    TITLE "9:cjc034_00758"
    INDEX 01 01:00:47
  TRACK 67 AUDIO
    TITLE "0:"
    INDEX 01 01:01:60
